<?xml version="1.0" encoding="UTF-8"?>
<svg id="Layer_1" xmlns="http://www.w3.org/2000/svg" version="1.1" viewBox="0 0 69 69">
  <!-- Generator: Adobe Illustrator 29.7.1, SVG Export Plug-In . SVG Version: 2.1.1 Build 8)  -->
  <defs>
    <style>
      .st0 {
        fill: #fe4300;
      }

      .st1 {
        fill: #fff;
      }
    </style>
  </defs>
  <circle class="st0" cx="34.5" cy="34.5" r="34.5"/>
  <g>
    <path class="st1" d="M54.36,18.85v-1.23c0-.82-.33-1.57-.87-2.11-.54-.54-1.28-.87-2.11-.87s-1.57.33-2.11.87l-14.78,14.78h0l-14.78-14.78c-.55-.55-1.3-.88-2.14-.87-1.64.02-2.94,1.38-2.94,3.02v15.24l11.92,11.92v3.59h-5.96v-3.93l-5.96-5.96v12.87c0,1.64,1.33,2.98,2.98,2.98h11.92c.29,0,.57-.04.83-.12,1.24-.36,2.15-1.5,2.15-2.86v-9.04l-4.21-4.21-1.74-1.75-5.96-5.96v-5.62l13.9,13.9h0s19.86-19.86,19.86-19.86Z"/>
    <path class="st1" d="M48.4,30.43v5.82l-5.96,5.96v-5.82l-5.96,5.96v9.04c0,1.65,1.33,2.98,2.98,2.98h2.98v-3.73l5.96-5.96v9.69h2.98c1.65,0,2.98-1.33,2.98-2.98v-26.91l-5.96,5.96Z"/>
  </g>
</svg>