<?xml version="1.0" encoding="UTF-8"?>
<svg id="Layer_1" xmlns="http://www.w3.org/2000/svg" version="1.1" viewBox="0 0 30 30">
  <!-- Generator: Adobe Illustrator 29.7.1, SVG Export Plug-In . SVG Version: 2.1.1 Build 8)  -->
  <defs>
    <style>
      .st0 {
        fill: #fff;
      }
    </style>
  </defs>
  <ellipse cx="15" cy="15" rx="14.86" ry="14.6"/>
  <path class="st0" d="M20.32,10.59c-2.51,0-3.91,1.63-4.31,3.31-.46-.86-.79-2-1.05-3.07h-3.46v4.31c0,1.56-.71,2.72-2.1,2.72s-2.19-1.16-2.19-2.72l.02-4.31h-2v4.31c0,1.26.41,2.4,1.15,3.21.77.84,1.81,1.28,3.02,1.28,2.41,0,4.09-1.85,4.09-4.49v-2.9c.25.95.85,2.78,2,4.39l-1.07,6.1h2.03l.71-4.32c.23.19.48.36.74.52.68.43,1.46.67,2.26.7,0,0,.12,0,.19,0,2.48,0,4.46-1.92,4.46-4.52s-1.98-4.53-4.47-4.53M20.32,17.86c-1.54,0-2.55-1.19-2.84-1.65.36-2.91,1.43-3.83,2.84-3.83s2.47,1.11,2.47,2.74-1.08,2.74-2.47,2.74"/>
</svg>